<svg xmlns="http://www.w3.org/2000/svg" viewBox="0 0 32 32">
  <!-- Background gradient -->
  <defs>
    <linearGradient id="bgGrad" x1="0%" y1="0%" x2="100%" y2="100%">
      <stop offset="0%" style="stop-color:#E6007A;stop-opacity:1" />
      <stop offset="100%" style="stop-color:#552BBF;stop-opacity:1" />
    </linearGradient>
    <linearGradient id="whaleGrad" x1="0%" y1="0%" x2="100%" y2="100%">
      <stop offset="0%" style="stop-color:#ffffff;stop-opacity:1" />
      <stop offset="100%" style="stop-color:#f0f0f0;stop-opacity:1" />
    </linearGradient>
  </defs>
  
  <!-- Background circle -->
  <circle cx="16" cy="16" r="15" fill="url(#bgGrad)" stroke="#fff" stroke-width="1"/>
  
  <!-- Whale body (more detailed) -->
  <path d="M 6 18 
           C 6 13, 10 10, 16 10
           C 22 10, 26 13, 26 18
           C 26 20, 24 22, 22 22
           L 10 22
           C 8 22, 6 20, 6 18 Z" 
           fill="url(#whaleGrad)" />
  
  <!-- Whale tail fin -->
  <path d="M 22 20
           L 24 18
           C 25 17, 26 17, 27 18
           L 28 20
           L 27 21
           C 26 22, 25 22, 24 21
           L 22 20 Z"
           fill="white" />
  
  <!-- Whale details -->
  <ellipse cx="16" cy="18" rx="8" ry="4" fill="white" opacity="0.3"/>
  
  <!-- Whale eye -->
  <circle cx="11" cy="16" r="2" fill="#E6007A"/>
  <circle cx="11.5" cy="15.5" r="0.8" fill="white"/>
  
  <!-- Water spout animation -->
  <g>
    <circle cx="16" cy="8" r="1" fill="white" opacity="0.7"/>
    <circle cx="15" cy="6" r="0.8" fill="white" opacity="0.5"/>
    <circle cx="17" cy="6" r="0.8" fill="white" opacity="0.5"/>
    <circle cx="16" cy="4" r="0.6" fill="white" opacity="0.3"/>
  </g>
  
  <!-- Small dots for texture -->
  <circle cx="20" cy="17" r="0.5" fill="white" opacity="0.5"/>
  <circle cx="18" cy="19" r="0.5" fill="white" opacity="0.5"/>
  <circle cx="14" cy="19" r="0.5" fill="white" opacity="0.5"/>
</svg>